<svg xmlns="http://www.w3.org/2000/svg" width="106.669" height="34.01" viewBox="0 0 106.669 34.01">
  <g id="Logo" transform="translate(0 0)">
    <g id="Group_36243" data-name="Group 36243" transform="translate(0 0)">
      <path id="Path_7" data-name="Path 7" d="M117.461,10.273h6.358v26c-3.254,0-6.3.074-9.337-.073-.511-.025-1.159-.927-1.434-1.559-1.874-4.306-3.663-8.649-5.485-12.978-.208-.494-.454-.972-.819-1.747V36.354h-6.686V10.722c2.793,0,5.812-.051,8.825.063.389.014.866.831,1.1,1.365,2.1,4.829,4.155,9.68,6.229,14.521a4.356,4.356,0,0,0,1.252,1.816Z" transform="translate(-42.944 -4.388)" fill="#1f150f"/>
      <path id="Path_8" data-name="Path 8" d="M54.358,34.578V8.818c6.06-.309,11.789-.655,17.219,1.878a9.213,9.213,0,0,1,5.386,6.5c1.978,8.705-.9,15.384-10.371,16.716-4.034.567-8.163.465-12.233.666m6.512-5.088c3.079-.044,6.124.212,8.383-2.269,1.893-2.078,2.152-7.75.557-10.58-1.7-3.009-4.67-3.152-7.625-3.135-.441,0-1.253.614-1.259.953-.082,4.946-.057,9.893-.057,15.031" transform="translate(-23.33 -3.675)" fill="#1f150f"/>
      <path id="Path_9" data-name="Path 9" d="M145.7,35.741q1.789-6.98,3.586-13.98c.838-3.236,1.752-6.453,2.534-9.7.281-1.165.773-1.67,2.018-1.634,2.417.071,4.841-.073,7.254.042a2.17,2.17,0,0,1,1.645,1.123c2.189,8.018,4.275,16.065,6.466,24.415-2.141.235-4.084.493-6.035.62-.322.021-.769-.477-1-.838a4.172,4.172,0,0,1-.321-1.23c-1.41-5.766-1.41-5.735-7.249-5.641-1.114.018-1.748.3-1.9,1.457-.08.632-.272,1.251-.408,1.876-1.025,4.7-1.589,5.01-6.6,3.49m13.576-11.318c-.845-3.335-1.616-6.376-2.387-9.417l-.489,0c-.73,3.091-1.46,6.181-2.225,9.422Z" transform="translate(-62.533 -4.451)" fill="#1f150f"/>
      <path id="Path_10" data-name="Path 10" d="M19.6,27.967l-2.837-.148V23.306c3.378-.468,6.7-.775,9.944-1.476a3.519,3.519,0,0,0,2.266-2.378A4.843,4.843,0,0,0,27.5,16.195a5.057,5.057,0,0,0-2.908-1.156c-2.606-.317-5.237-.427-8.071-.636V9.558c4.923-.11,9.8.062,14.377,2.172,2.7,1.243,4.486,3.28,4.514,6.448a7.79,7.79,0,0,1-4.475,7.452,46.134,46.134,0,0,1-4.3,1.724c.163,4.243,2.426,5.719,8.592,5.44-.1,1.489-.15,2.956-.35,4.4a1.333,1.333,0,0,1-.95.862c-4.069.123-8.194-.128-11.011-3.461-1.484-1.755-2.143-4.207-3.314-6.631" transform="translate(-7.09 -4.072)" fill="#1f150f"/>
      <path id="Path_11" data-name="Path 11" d="M2.019,9.978l5.949-.34V36.177l-5.949.395Z" transform="translate(-0.866 -4.117)" fill="#1f150f"/>
      <path id="Path_12" data-name="Path 12" d="M3.138,2.7C2.1,1.784-.22,2.708.016,0H7.158l.1.563L3.2,1.31A29,29,0,0,1,6.509,2.1a1.553,1.553,0,0,1,.749,1.062,1.071,1.071,0,0,1-.658.823c-2.09.067-4.184.038-6.276.038L.175,3.3l2.962-.6" transform="translate(0)" fill="#1f150f"/>
    </g>
  </g>
</svg>
