<svg id="Group_38093" data-name="Group 38093" xmlns="http://www.w3.org/2000/svg" width="157.437" height="138" viewBox="0 0 157.437 138">
  <path id="Path_234074" data-name="Path 234074" d="M479.322,581.9c-.275.385-.553.768-.828,1.148a4.713,4.713,0,0,1-2.688.836H327.918a4.733,4.733,0,0,1-2.585-.765c-.255-.338-.508-.678-.763-1.019l.255-.141,74.867-41.613a4.485,4.485,0,0,1,4.341-.006l75.036,41.419Z" transform="translate(-323.143 -445.88)" fill="#ffcd00"/>
  <path id="Path_234075" data-name="Path 234075" d="M472.166,276.153,407.278,238.79a18.013,18.013,0,0,0-17.955-.009l-65.052,37.372a4.771,4.771,0,0,0-4.771,4.757v79.467a4.769,4.769,0,0,0,4.771,4.757h147.9a4.772,4.772,0,0,0,4.771-4.757V280.91A4.771,4.771,0,0,0,472.166,276.153Zm4.21,84.224a4.214,4.214,0,0,1-4.21,4.2h-147.9a4.211,4.211,0,0,1-4.21-4.2V280.91a4.208,4.208,0,0,1,4.21-4.2l65.051-37.372a18.013,18.013,0,0,1,17.956.009l64.888,37.364a4.208,4.208,0,0,1,4.21,4.2Z" transform="translate(-319.5 -227.134)" fill="#3f3d56"/>
  <path id="Path_234076" data-name="Path 234076" d="M462.258,298.319a4.291,4.291,0,0,1-1.434-.242l-.085-.03-.017-.189c-.053.026-.106.051-.159.075l-.056.025-.056-.025c-.118-.052-.235-.111-.349-.175l-51.6-29.112v-59.44A5.2,5.2,0,0,1,413.685,204h96.977a5.2,5.2,0,0,1,5.185,5.206v59.516l-.071.04-51.362,29A4.4,4.4,0,0,1,462.258,298.319Z" transform="translate(-383.456 -203.859)" fill="#fff"/>
  <path id="Path_234077" data-name="Path 234077" d="M461.9,298.1a4.429,4.429,0,0,1-1.48-.25l-.17-.06-.007-.08-.094.042-.113-.05c-.122-.054-.244-.115-.361-.181L408,268.369V208.847a5.342,5.342,0,0,1,5.325-5.347H510.3a5.342,5.342,0,0,1,5.325,5.347v59.6l-51.505,29.076A4.542,4.542,0,0,1,461.9,298.1Zm-1.125-.725a4.048,4.048,0,0,0,3.076-.345l51.219-28.914V208.847a4.78,4.78,0,0,0-4.765-4.784H413.325a4.78,4.78,0,0,0-4.765,4.784V268.04l3.36,1.895,48.027,27.1q.1.055.2.1.1-.049.2-.1l.377-.214Z" transform="translate(-383.096 -203.5)" fill="#3f3d56"/>
  <path id="Path_234078" data-name="Path 234078" d="M478.616,384.415,458.251,395.9l-3.508,1.978-51.425,29a4.268,4.268,0,0,1-2.091.543,4.173,4.173,0,0,1-1.389-.234,3.38,3.38,0,0,1-.365-.141q-.172-.076-.337-.169l-48.085-27.1-3.508-1.975L323.714,384.37a.285.285,0,0,1-.107-.386.28.28,0,0,1,.382-.107l23.556,13.274,3.508,1.975,48.36,27.251a3.663,3.663,0,0,0,.5.234c.073.028.149.053.225.076a3.713,3.713,0,0,0,2.907-.31l51.7-29.147,3.508-1.978,20.09-11.326a.281.281,0,0,1,.275.49Z" transform="translate(-322.426 -333.483)" fill="#3f3d56"/>
  <path id="Path_234079" data-name="Path 234079" d="M457.705,258h-7.879a2.251,2.251,0,0,1,0-4.5h7.879a2.251,2.251,0,0,1,0,4.5Z" transform="translate(-411.641 -239.43)" fill="#ffcd00"/>
  <path id="Path_234080" data-name="Path 234080" d="M466.991,285H449.826a2.251,2.251,0,0,1,0-4.5h17.165a2.251,2.251,0,0,1,0,4.5Z" transform="translate(-411.648 -258.832)" fill="#e6e6e6"/>
  <path id="Path_234081" data-name="Path 234081" d="M556.933,357H508.251a2.251,2.251,0,0,1,0-4.5h48.682a2.251,2.251,0,1,1,0,4.5Z" transform="translate(-453.734 -310.799)" fill="#ffcd00"/>
  <path id="Path_234082" data-name="Path 234082" d="M549.219,388H491.251a2.251,2.251,0,1,1,0-4.5h57.968a2.251,2.251,0,0,1,0,4.5Z" transform="translate(-441.517 -333.124)" fill="#e6e6e6"/>
  <path id="Path_234083" data-name="Path 234083" d="M549.219,418H491.251a2.251,2.251,0,1,1,0-4.5h57.968a2.251,2.251,0,0,1,0,4.5Z" transform="translate(-441.517 -354.727)" fill="#e6e6e6"/>
</svg>
