<svg xmlns="http://www.w3.org/2000/svg" width="194" height="129" viewBox="0 0 194 129">
  <g id="Group_38095" data-name="Group 38095" transform="translate(0 0)">
    <path id="Path_234084" data-name="Path 234084" d="M434.8,419.35c6.654-11.7,19.346-20.692,32.781-19.826a62.032,62.032,0,0,0-16.315,39.34c-.221,5.642.122,11.941-3.625,16.166a13.866,13.866,0,0,1-9.4,4.169,41.18,41.18,0,0,1-10.462-1l-.838.257C426.628,445,428.149,431.055,434.8,419.35Z" transform="translate(-365.221 -345.122)" fill="#f0f0f0"/>
    <path id="Path_234085" data-name="Path 234085" d="M467.58,398.823a53.022,53.022,0,0,0-23.608,22.513,22.834,22.834,0,0,0-2.5,6.7,13.1,13.1,0,0,0,.681,6.858c.738,2.052,1.731,4.066,1.957,6.262a8.018,8.018,0,0,1-2.146,6.2,20.832,20.832,0,0,1-6.9,4.592c-2.784,1.319-5.7,2.645-7.669,5.107-.239.3-.688-.09-.449-.388,3.431-4.283,9.3-5.088,13.376-8.538a8.121,8.121,0,0,0,3.237-6.371c-.079-2.246-1.1-4.324-1.866-6.4a13.974,13.974,0,0,1-.916-6.681,21.108,21.108,0,0,1,2.232-6.774,51.441,51.441,0,0,1,9.459-13,53.961,53.961,0,0,1,14.92-10.645c.343-.165.533.4.192.561Z" transform="translate(-365.197 -344.139)" fill="#fff"/>
    <path id="Path_234086" data-name="Path 234086" d="M505.384,455.791a7.955,7.955,0,0,1-2.4-10.017c.174-.34.71-.086.536.254a7.366,7.366,0,0,0,2.252,9.313C506.081,455.566,505.692,456.014,505.384,455.791Z" transform="translate(-425.086 -381.837)" fill="#fff"/>
    <path id="Path_234087" data-name="Path 234087" d="M498.2,551.023a15.332,15.332,0,0,0,9.708-5.533c.24-.3.689.091.449.388a15.948,15.948,0,0,1-10.113,5.737c-.379.054-.42-.538-.043-.592Z" transform="translate(-421.755 -461.247)" fill="#fff"/>
    <path id="Path_234088" data-name="Path 234088" d="M573.009,432.406a4.5,4.5,0,0,0,4.025,1.435c.378-.059.419.533.044.592a5.046,5.046,0,0,1-4.456-1.577.307.307,0,0,1-.031-.418A.3.3,0,0,1,573.009,432.406Z" transform="translate(-481.128 -371.267)" fill="#fff"/>
    <path id="Path_234089" data-name="Path 234089" d="M492.3,551.9c-.235.044-.47.087-.707.135a59.314,59.314,0,0,0-9.271,2.563c-.234.082-.471.168-.7.256a62.516,62.516,0,0,0-19.661,11.965,60.716,60.716,0,0,0-6.368,6.673c-2.693,3.291-5.352,7.073-8.872,9.219a10.421,10.421,0,0,1-1.133.614l-20.276-8.41c-.037-.042-.075-.08-.112-.122l-.825-.3c.092-.13.19-.263.282-.393.053-.076.111-.149.164-.225.037-.05.074-.1.1-.146.012-.017.025-.033.035-.045.03-.047.064-.088.092-.13q.82-1.115,1.659-2.223s0,0,.008-.007a89.266,89.266,0,0,1,14.5-15.339c.164-.133.329-.27.5-.4a57.93,57.93,0,0,1,7.83-5.3,51.229,51.229,0,0,1,4.645-2.3,42.587,42.587,0,0,1,12.9-3.291c8.865-.823,17.894,1.2,24.693,6.767C491.955,551.61,492.125,551.751,492.3,551.9Z" transform="translate(-363.214 -460.572)" fill="#f0f0f0"/>
    <path id="Path_234090" data-name="Path 234090" d="M493.244,575.55a53.021,53.021,0,0,0-32.4,3.762,22.832,22.832,0,0,0-6.031,3.847,13.1,13.1,0,0,0-3.585,5.886c-.646,2.083-1.066,4.288-2.208,6.178a8.018,8.018,0,0,1-5.444,3.655,20.833,20.833,0,0,1-8.276-.489c-3.017-.623-6.141-1.318-9.2-.54-.37.094-.495-.486-.125-.58,5.318-1.354,10.492,1.539,15.821,1.236a8.12,8.12,0,0,0,6.42-3.138c1.29-1.841,1.724-4.115,2.361-6.23a13.974,13.974,0,0,1,3.291-5.886,21.11,21.11,0,0,1,5.861-4.065,51.44,51.44,0,0,1,15.38-4.684,53.961,53.961,0,0,1,18.322.483c.373.075.186.638-.185.564Z" transform="translate(-364.314 -483.986)" fill="#fff"/>
    <path id="Path_234091" data-name="Path 234091" d="M611.9,555.059a7.955,7.955,0,0,1,4.114-9.443c.343-.167.619.359.275.526a7.366,7.366,0,0,0-3.809,8.792C612.594,555.3,612.013,555.422,611.9,555.059Z" transform="translate(-512.205 -461.407)" fill="#fff"/>
    <path id="Path_234092" data-name="Path 234092" d="M549.673,642.4a15.333,15.333,0,0,0,11.082,1.427c.371-.093.5.487.125.58a15.948,15.948,0,0,1-11.529-1.508C549.016,642.712,549.34,642.214,549.673,642.4Z" transform="translate(-462.573 -538.438)" fill="#fff"/>
    <path id="Path_234093" data-name="Path 234093" d="M694.115,575.163a4.5,4.5,0,0,0,2.349,3.569c.337.18.013.678-.322.5a5.046,5.046,0,0,1-2.608-3.942.307.307,0,0,1,.227-.353A.3.3,0,0,1,694.115,575.163Z" transform="translate(-577.456 -484.764)" fill="#fff"/>
    <path id="Path_234094" data-name="Path 234094" d="M214.916,511.08c-2.84-13.73-6.389-18.307-6.389-18.307l-1.356-1.052-1.631-1.267.008-.163-.387-.131-.091-.071-.149-.114L204.9,490l-.051.052-7.379-2.508-9.361-3.18-4.335-5.635a7.5,7.5,0,0,0-6-2.926l-13.844.1a7.5,7.5,0,0,0-5.043,2l-9.1,8.441-14.179,6.772-.024-.024-.149.106-2.191,1.048.09.471-1.356.978s-3.549,4.259-6.389,17.035c-.722,3.251-1.078,10.224-1.206,18.816a3.28,3.28,0,0,0,3.278,3.328h85.186a3.28,3.28,0,0,0,3.278-3.325C216,522.2,215.645,514.605,214.916,511.08Z" transform="translate(-124.382 -405.88)" fill="#3f3d56"/>
    <path id="Path_234095" data-name="Path 234095" d="M572.227,191.732a11.11,11.11,0,1,0,0,22.219h82.794a11.11,11.11,0,1,0,0-22.219Z" transform="translate(-472.131 -179.759)" fill="#e5e5e5"/>
    <path id="Path_234096" data-name="Path 234096" d="M580.994,202.747a8.861,8.861,0,1,0,0,17.723h82.794a8.861,8.861,0,1,0,0-17.723Z" transform="translate(-480.898 -188.526)" fill="#fff"/>
    <circle id="ab6171fa-7d69-4734-b81c-8dff60f9761b" cx="18.138" cy="18.138" r="18.138" transform="translate(30.476 28.47)" fill="#9e616a"/>
    <path id="Path_234097" data-name="Path 234097" d="M339.068,443.97q-.116-.256-.232-.514c.03,0,.059.005.089.006Z" transform="translate(-295.099 -380.119)" fill="#2f2e41"/>
    <path id="Path_234098" data-name="Path 234098" d="M243.656,243.116a5.048,5.048,0,0,1,3.162-1.367c1.173.038,2.362,1.1,2.119,2.245a18.639,18.639,0,0,1,22.43-8.411c2.915,1.028,5.774,3.086,6.443,6.1a5.5,5.5,0,0,0,.692,2.253,2.572,2.572,0,0,0,2.737.694l.029-.008a.857.857,0,0,1,1.035,1.21l-.825,1.538a6.609,6.609,0,0,0,3.149-.067.856.856,0,0,1,.909,1.332,14.925,14.925,0,0,1-11.9,6.117c-3.3-.02-6.625-1.156-9.832-.4a8.541,8.541,0,0,0-5.744,11.989,2.785,2.785,0,0,0-3.9.234,5.346,5.346,0,0,0-1.167,4.09,18.978,18.978,0,0,0,1.948,6.371,19.045,19.045,0,0,1-11.29-33.926Z" transform="translate(-213.654 -213.819)" fill="#2f2e41"/>
    <path id="Path_234099" data-name="Path 234099" d="M87.464,495.253l5.087,27.678,3.052.266Z" transform="translate(-69.612 -394.198)" opacity="0.2"/>
    <path id="Path_234100" data-name="Path 234100" d="M330.268,485.026l-5.087,29.746-3.052.286Z" transform="translate(-256.434 -386.058)" opacity="0.2"/>
    <path id="Path_234101" data-name="Path 234101" d="M252.762,153.058a1.808,1.808,0,0,1-2.42-1.061,1.836,1.836,0,0,1,.962-2.505,1.928,1.928,0,0,1,1.458,3.566Zm-1.868-5.609-.776.324a.837.837,0,0,1-1.063-.39l-.038-.075a6.784,6.784,0,0,1-.283-5.434c.6-1.883.849-3.208.348-4.408-.579-1.387-1.816-1.822-3.394-1.192A2.883,2.883,0,0,0,244.4,137a1.105,1.105,0,0,1-.8.325,1.069,1.069,0,0,1-.765-.335,1.092,1.092,0,0,1-.008-1.489,8.478,8.478,0,0,1,2.867-1.968c3.389-1.415,5.1.674,5.877,2.544.764,1.829.334,3.526-.356,5.724a5.682,5.682,0,0,0,.112,4.525.833.833,0,0,1-.434,1.121Z" transform="translate(-218.421 -133.069)" fill="#ffcd00"/>
    <path id="Path_234102" data-name="Path 234102" d="M639.368,269.028H622.895a.4.4,0,0,1,0-.794h16.473a.4.4,0,1,1,0,.794Z" transform="translate(-520.917 -240.652)" fill="#ffcd00"/>
    <path id="Path_234103" data-name="Path 234103" d="M741.749,269.676H725.276a.4.4,0,0,1,0-.794h16.473a.4.4,0,1,1,0,.794Z" transform="translate(-602.42 -241.168)" fill="#ffcd00"/>
    <path id="Path_234104" data-name="Path 234104" d="M844.131,270.324H827.658a.4.4,0,1,1,0-.794h16.473a.4.4,0,1,1,0,.794Z" transform="translate(-683.923 -241.684)" fill="#ffcd00"/>
    <path id="Path_234105" data-name="Path 234105" d="M946.509,270.972H930.036a.4.4,0,1,1,0-.794h16.473a.4.4,0,1,1,0,.794Z" transform="translate(-765.434 -242.2)" fill="#ffcd00"/>
    <circle id="Ellipse_51" data-name="Ellipse 51" cx="3.062" cy="3.062" r="3.062" transform="translate(107.116 18.607)" fill="#ffcd00"/>
    <circle id="Ellipse_52" data-name="Ellipse 52" cx="3.062" cy="3.062" r="3.062" transform="translate(128.122 18.607)" fill="#ffcd00"/>
    <circle id="Ellipse_53" data-name="Ellipse 53" cx="3.062" cy="3.062" r="3.062" transform="translate(149.128 18.607)" fill="#ffcd00"/>
    <circle id="Ellipse_54" data-name="Ellipse 54" cx="3.062" cy="3.062" r="3.062" transform="translate(170.119 18.607)" fill="#ffcd00"/>
  </g>
</svg>
