<svg id="vuesax_twotone_notification-bing" data-name="vuesax/twotone/notification-bing" xmlns="http://www.w3.org/2000/svg" width="24" height="24" viewBox="0 0 24 24">
  <g id="vuesax_twotone_notification-bing-2" data-name="vuesax/twotone/notification-bing">
    <g id="notification-bing">
      <path id="Vector" d="M2.257,6.66v2.1a5.192,5.192,0,0,1-.63,2.28L.357,13.16a2.132,2.132,0,0,0,1.2,3.25,23.34,23.34,0,0,0,14.73,0,2.22,2.22,0,0,0,1.2-3.25l-1.27-2.12a5.23,5.23,0,0,1-.63-2.28V6.66a6.665,6.665,0,0,0-13.33,0Z" transform="translate(3.103 2)" fill="#292d32"/>
      <path id="Vector-2" data-name="Vector" d="M6.66,0A3.342,3.342,0,0,1,3.33,3.33,3.336,3.336,0,0,1,.98,2.35,3.336,3.336,0,0,1,0,0" transform="translate(8.67 18.82)" fill="none" stroke="#292d32" stroke-width="1.5" stroke-dasharray="0 0"/>
      <path id="Vector-3" data-name="Vector" d="M24,0V24H0V0Z" fill="none" opacity="0"/>
      <path id="Vector-4" data-name="Vector" d="M0,0V3.33" transform="translate(12 6.44)" fill="none" stroke="#fff" stroke-linecap="round" stroke-width="1.5" stroke-dasharray="0 0"/>
    </g>
  </g>
</svg>
