<svg id="vuesax_outline_money-2" data-name="vuesax/outline/money-2" xmlns="http://www.w3.org/2000/svg" width="24" height="24" viewBox="0 0 24 24">
  <g id="vuesax_outline_money-2-2" data-name="vuesax/outline/money-2">
    <g id="money-2">
      <path id="Vector" d="M15.75,18.5h-10C2.1,18.5,0,16.4,0,12.75v-7C0,2.1,2.1,0,5.75,0h10C19.4,0,21.5,2.1,21.5,5.75v7C21.5,16.4,19.4,18.5,15.75,18.5Zm-10-17C2.89,1.5,1.5,2.89,1.5,5.75v7C1.5,15.61,2.89,17,5.75,17h10C18.61,17,20,15.61,20,12.75v-7c0-2.86-1.39-4.25-4.25-4.25Z" transform="translate(1.25 2.75)" fill="#292d32"/>
      <path id="Vector-2" data-name="Vector" d="M3.75,7.5A3.75,3.75,0,1,1,7.5,3.75,3.754,3.754,0,0,1,3.75,7.5Zm0-6A2.25,2.25,0,1,0,6,3.75,2.253,2.253,0,0,0,3.75,1.5Z" transform="translate(8.25 8.25)" fill="#292d32"/>
      <path id="Vector-3" data-name="Vector" d="M.75,6.5A.75.75,0,0,1,.75,5h1C4.33,5,5,4.33,5,1.75v-1a.75.75,0,0,1,1.5,0v1C6.5,5.17,5.17,6.5,1.75,6.5Z" transform="translate(1.25 3.25)" fill="#292d32"/>
      <path id="Vector-4" data-name="Vector" d="M4.75,6.5C1.33,6.5,0,5.17,0,1.75v-1A.755.755,0,0,1,.75,0,.755.755,0,0,1,1.5.75v1C1.5,4.33,2.17,5,4.75,5h1a.75.75,0,0,1,0,1.5Z" transform="translate(16.25 3.25)" fill="#292d32"/>
      <path id="Vector-5" data-name="Vector" d="M5,5.75v-1C5,2.17,4.33,1.5,1.75,1.5h-1A.755.755,0,0,1,0,.75.755.755,0,0,1,.75,0h1C5.17,0,6.5,1.33,6.5,4.75v1a.75.75,0,0,1-1.5,0Z" transform="translate(1.25 14.25)" fill="#292d32"/>
      <path id="Vector-6" data-name="Vector" d="M0,5.75v-1C0,1.33,1.33,0,4.75,0h1A.755.755,0,0,1,6.5.75a.755.755,0,0,1-.75.75h-1c-2.58,0-3.25.67-3.25,3.25v1a.755.755,0,0,1-.75.75A.755.755,0,0,1,0,5.75Z" transform="translate(16.25 14.25)" fill="#292d32"/>
      <path id="Vector-7" data-name="Vector" d="M24,0V24H0V0Z" fill="none" opacity="0"/>
    </g>
  </g>
</svg>
