<svg xmlns="http://www.w3.org/2000/svg" width="24" height="24" viewBox="0 0 24 24">
  <g id="vuesax_outline_menu" data-name="vuesax/outline/menu" transform="translate(-0.991)">
    <g id="vuesax_outline_menu-2" data-name="vuesax/outline/menu" transform="translate(0.991)">
      <g id="menu">
        <g id="Group_37540" data-name="Group 37540" transform="translate(1 9.008)">
          <g id="Group_37518" data-name="Group 37518" transform="translate(-1.93)">
            <path id="Vector" d="M3,6A3,3,0,1,1,6,3,3,3,0,0,1,3,6ZM3,1.393a1.6,1.6,0,1,0,1.6,1.6A1.6,1.6,0,0,0,3,1.393Z" transform="translate(17.937)" fill="#292d32"/>
            <path id="Vector-2" data-name="Vector" d="M3,6A3,3,0,1,1,6,3,3,3,0,0,1,3,6ZM3,1.393a1.6,1.6,0,1,0,1.6,1.6A1.6,1.6,0,0,0,3,1.393Z" transform="translate(9.937)" fill="#292d32"/>
            <path id="Vector-3" data-name="Vector" d="M3,6A3,3,0,1,1,6,3,3,3,0,0,1,3,6ZM3,1.393a1.6,1.6,0,1,0,1.6,1.6A1.6,1.6,0,0,0,3,1.393Z" transform="translate(1.937)" fill="#292d32"/>
          </g>
        </g>
        <path id="Vector-4" data-name="Vector" d="M24,0V24H0V0Z" fill="none" opacity="0"/>
      </g>
    </g>
  </g>
</svg>
