<svg id="vuesax_outline_box" data-name="vuesax/outline/box" xmlns="http://www.w3.org/2000/svg" width="24" height="24" viewBox="0 0 24 24">
  <g id="vuesax_outline_box-2" data-name="vuesax/outline/box">
    <g id="box">
      <path id="Vector" d="M9.2,6.513.373,1.4A.753.753,0,0,1,1.133.1l8.45,4.89,8.4-4.86a.761.761,0,0,1,1.03.27.761.761,0,0,1-.27,1.03l-8.77,5.08a.94.94,0,0,1-.39.1A.746.746,0,0,1,9.2,6.513Z" transform="translate(2.416 6.687)" fill="#292d32"/>
      <path id="Vector-2" data-name="Vector" d="M0,9.82V.75A.755.755,0,0,1,.75,0,.755.755,0,0,1,1.5.75V9.82a.755.755,0,0,1-.75.75A.755.755,0,0,1,0,9.82Z" transform="translate(11.25 11.79)" fill="#292d32"/>
      <path id="Vector-3" data-name="Vector" d="M10.36,21.5a5.148,5.148,0,0,1-2.44-.57L2.58,17.96A5.444,5.444,0,0,1,0,13.57V7.92A5.473,5.473,0,0,1,2.58,3.53L7.92.57A5.118,5.118,0,0,1,10.36,0,5.118,5.118,0,0,1,12.8.57L18.14,3.54A5.444,5.444,0,0,1,20.72,7.93v5.65a5.472,5.472,0,0,1-2.579,4.39L12.8,20.93A5.143,5.143,0,0,1,10.36,21.5Zm0-20a3.654,3.654,0,0,0-1.71.38L3.31,4.85A4.03,4.03,0,0,0,1.5,7.93v5.65a4.03,4.03,0,0,0,1.81,3.08l5.34,2.97a3.625,3.625,0,0,0,1.71.383,3.625,3.625,0,0,0,1.71-.383l5.34-2.97a4.031,4.031,0,0,0,1.811-3.08V7.93A4.031,4.031,0,0,0,17.41,4.85L12.07,1.88A3.654,3.654,0,0,0,10.36,1.5Z" transform="translate(1.641 1.25)" fill="#292d32"/>
      <path id="Vector-4" data-name="Vector" d="M24,0V24H0V0Z" fill="none" opacity="0"/>
    </g>
  </g>
</svg>
